<svg width="172" height="60" viewBox="0 0 172 60" fill="none" xmlns="http://www.w3.org/2000/svg">
<path d="M63.6562 30.8254L40.0181 30.7804C37.4054 30.7754 35.6493 33.4569 36.6981 35.8499L46.1873 57.4997" stroke="#2BB2BC" stroke-width="6.33042"/>
<path d="M0 30.8254L23.6381 30.7804C26.2508 30.7754 28.0069 33.4569 26.9581 35.8499L17.4689 57.4997" stroke="#005EE1" stroke-width="6.33042"/>
<path d="M15.8516 1.7915L28.7636 21.6101C30.1907 23.8004 33.3984 23.8004 34.8254 21.6101L47.7375 1.7915" stroke="#EDAF2B" stroke-width="6.33042"/>
<path d="M87.2468 0.0737305V46.3397H100.443V59.2179H72.6992V0.0737305H87.2468Z" fill="white"/>
<path d="M117.7 37.1183V59.2178H103.152V0.0737305H125.331C133.996 0.0737305 138.845 3.57162 138.845 13.5083V23.5249C138.845 32.9051 133.837 37.1183 125.331 37.1183H117.7ZM117.7 26.3865H120.482C123.344 26.3865 124.377 25.1941 124.377 21.6965V15.0188C124.377 11.4415 123.344 10.3288 120.482 10.3288H117.7V26.3865Z" fill="white"/>
<path d="M171.469 0.0737305V12.1571H155.729V22.4913H168.687V34.8926H155.729V46.8963H171.469V59.2179H141.738V0.0737305H171.469Z" fill="white"/>
</svg>
