<?xml version="1.0" encoding="UTF-8"?>
<svg id="Vrstva_1" data-name="Vrstva 1" xmlns="http://www.w3.org/2000/svg" viewBox="0 0 1896.12 654.11">
  <defs>
    <style>
      .cls-1 {
        fill: #010101;
      }

      .cls-2 {
        stroke: #305ea9;
      }

      .cls-2, .cls-3, .cls-4 {
        fill: none;
        stroke-width: 70px;
      }

      .cls-3 {
        stroke: #edaf2b;
      }

      .cls-4 {
        stroke: #2eb2bc;
      }
    </style>
  </defs>
  <path class="cls-4" d="M703.94,340.16l-261.38-.5c-28.89-.05-48.31,29.6-36.71,56.06l104.93,239.4"/>
  <path class="cls-2" d="M.07,340.16l261.38-.5c28.89-.05,48.31,29.6,36.71,56.06l-104.93,239.4"/>
  <path class="cls-3" d="M175.35,19.11l142.78,219.15c15.78,24.22,51.25,24.22,67.03,0L527.93,19.11"/>
  <path class="cls-1" d="M964.8.11v511.6h145.91v142.4h-306.78V.11h160.86Z"/>
  <path class="cls-1" d="M1301.56,409.74v244.37h-160.86V.11h245.25c95.81,0,149.43,38.68,149.43,148.56v110.76c0,103.72-55.37,150.31-149.43,150.31h-84.39ZM1301.56,291.07h30.77c31.64,0,43.07-13.19,43.07-51.86v-73.84c0-39.56-11.43-51.86-43.07-51.86h-30.77v177.56Z"/>
  <path class="cls-1" d="M1896.12.11v133.62h-174.04v114.27h143.28v137.13h-143.28v132.73h174.04v136.25h-328.75V.11h328.75Z"/>
</svg>